<svg xmlns="http://www.w3.org/2000/svg" viewBox="0 0 22 21" xmlns:xlink="http://www.w3.org/1999/xlink">
  <title>
    icon/MIS
  </title>
  <defs>
    <path id="a" d="M6.5 22.1L8 23.6l1.8-1.8-1.4-1.4-1.9 1.7zM14 26h2v-2.9h-2V26zm2-16.9v5h-2v-5h-2v-2h6v2h-2zm-9 5v2H4v-2h3zm11-4.2V5.1h-6v4.8c-1.8 1-3 3-3 5.2 0 3.3 2.7 6 6 6s6-2.7 6-6c0-2.2-1.2-4.2-3-5.2zm5 4.2v2h3v-2h-3zm-2.8 7.7l1.8 1.8 1.4-1.4-1.8-1.8-1.4 1.4z"/>
  </defs>
  <g fill="none" fill-rule="evenodd" transform="translate(-4 -5)">
    <mask id="b" fill="#fff">
      <use xlink:href="#a"/>
    </mask>
    <path fill="#FFF" d="M0 0h28v28.17H0z" transform="translate(1 1)" mask="url(#b)"/>
  </g>
</svg>