<svg xmlns="http://www.w3.org/2000/svg" viewBox="0 0 20.59 21.09">
  <path fill="#FFF" d="M9.22 8.35c-.9.28-1.55 1.13-1.57 2.14-.02 1.23.95 2.3 2.18 2.3.74 0 1.4-.36 1.82-.9h.02l4.93-6.8-7.4 3.2.02.04z"/>
  <path fill="#FFF" d="M18.7 16.68c-.58.85-1.28 1.6-2.07 2.23l-1.32-1.7c.66-.6 1.2-1.26 1.6-2.03l1.8 1.53zm1.5-3.23c.25-.9.4-1.88.4-2.87-.02-1.83-.47-3.55-1.27-5.06l-1.92 2.5c.38.93.58 1.95.58 3.02 0 .65-.08 1.28-.2 1.9l2.44.5zm-6.04 6.93c-.84.36-1.73.6-2.67.7l-.16-1.83h-.13c.84-.15 1.63-.42 2.36-.8l.58 1.93zm-5.33.67c-.86-.12-1.7-.36-2.47-.7l.52-1.55c.72.3 1.5.48 2.3.54l-.35 1.7zm-4.95-2.2c-.45-.36-.87-.77-1.25-1.2l1-1.28c.35.45.76.86 1.2 1.22l-.95 1.24zm-3.44-5.2c-.3-.97-.44-2-.44-3.07C0 4.74 4.6 0 10.3 0c2.65 0 5.07 1.03 6.9 2.73L14 3.88c-1.2-.75-2.63-1.18-4.15-1.18-4.48 0-8.1 3.73-8.1 8.34 0 .8.1 1.57.3 2.3l-1.6.3z"/>
</svg>
