<svg xmlns="http://www.w3.org/2000/svg" viewBox="0 0 21.29 24.14">
  <path fill="#FFF" d="M8.02 14l.1.08 5.78 3.96c.13.1.14.13.03.25-.28.27-.5.6-.66.95-.06.13-.1.15-.23.07l-5.8-4c-.1-.07-.12-.1-.04-.2.3-.3.53-.64.7-1 .03-.05.02-.14.12-.12zm6.05-8.6L11.77 7l-3.6 2.47c-.13.1-.2.12-.28-.07-.18-.4-.45-.74-.76-1.04.02-.08.1-.1.13-.13L13 4.28c.16-.1.22-.12.3.06.17.4.44.74.77 1.07zm-1.3 5.6c.15 0 .24 0 .2.2-.08.38-.08.77 0 1.16.02.15-.03.2-.18.2-1.5-.02-3-.02-4.47-.02-.16 0-.2-.04-.17-.2.07-.38.06-.77 0-1.15-.04-.17 0-.2.16-.2h4.45zM15.14 3.05c0-1.7 1.4-3.05 3.1-3.05 1.7 0 3.05 1.38 3.05 3.1-.02 1.68-1.4 3.05-3.1 3.04-1.7 0-3.06-1.38-3.06-3.1zm0 9c0-1.7 1.4-3.05 3.1-3.05 1.7 0 3.05 1.38 3.05 3.1-.02 1.68-1.4 3.05-3.1 3.04-1.7 0-3.06-1.38-3.06-3.1zM0 12.05C0 10.35 1.4 9 3.08 9c1.7 0 3.07 1.38 3.06 3.1 0 1.68-1.38 3.05-3.08 3.04-1.7 0-3.06-1.38-3.06-3.1zm15.14 9c0-1.7 1.4-3.05 3.1-3.05 1.7 0 3.05 1.38 3.05 3.1-.02 1.68-1.4 3.05-3.1 3.04-1.7 0-3.06-1.38-3.06-3.1z"/>
</svg>
