<svg xmlns="http://www.w3.org/2000/svg" viewBox="0 0 50.21 27.2">
  <path stroke="#F83838" stroke-miterlimit="10" d="M38.86 3.72c.06.06-.06.12-.06.12s-.4.1-.5.28c-.13.12-.3.52-.3.52.23-.06.52-.12.8-.23.06 0 .12.1.18.2.05 0-.7.3-.86.4-.12.1-.7.6-.86.6-.18 0-.58.1-.58.1l.23.4-.4.3-.3.4s1.1.1 1.4-.4c-.3.6-1.1 1.2-2.8 1.2-1.7 0-3.1-.7-4-1-.9-.4-2.2-.8-3.2-.8-.9 0-2.1.3-2.8 1-1.3-.5-3.1-.2-4 .6C20 8 19.2 9 19 9.7c-.15.75-.55 2.5-1.12 3.3-.8 1.3-1.7 1.7-2 2.25-.3.6-.3 1.8-.22 1.8.1.08.5 0 .75-.1.4-.16 1.7-1.5 2.2-2.1.4-.65 2-3.4 2.2-4.4.2-.93.5-1.9 1.2-2.42s1.7-.3 1.7-.22c0 0-.9.7-.9 2.6-.1 1.9 1 1.7.5 2.9-.6 1-2.3.3-2.9 1-.5.6 0 2.4 0 2.7 0 .4-.2 2-.3 2.4-.1.4 0 .6-.1.8 0 .2.4.3.4.3s-.3.5-.5.4h-.4c-.1 0-.3.1-.6 0l-.9 1.8c.1.1.3.1.5.1.3 0 1.4-.5 1.5-.7.2 0 1.2-.6 1.3-.9.2-.3.4-1.4.4-1.8.1-.3.1-1.4.1-1.7v-1c.2-.2.3-.4.6-.5.3-.1.7-.1.7-.1.1 0 1.1.1 1.3.1.2 0 1.2-.1 1.4-.3.3 0 .5 0 .5.2.2.1-.1.3-.1.4 0 .1-.5.6-.6.9-.2.3-.6.8-.4 1.1.1.3.1.3.4.5.4.1 1.7.8 2.4 1.5.8.8 1.6 1.7 1.7 2.1.2.6.4.6.6.6.2.1.5.1.5.4v.5l2.2.8s0-.7-.03-1c-.1-.3-.4-.7-.7-1-.3-.4-3.3-3.3-3.6-3.5-.3-.2-.5-.4-.5-.9s.5-.8.9-1.2c.3-.3.9-1.6 1-1.8.1-.2.5-.6.8-.6.3 0 .9.4 1.7.7.3.1 2.8.7 3.1.8.37.1 1.1 0 1.35.3.2.2 0 .67-.06.96-.05.4-.7 1.6-.7 1.6s.14.5.14.8c0 .4-.12 1.9-.3 2.3-.1.5-.9 1.9-1.1 2.1-.1.2-.3.3-.3.6s.5.36.7.6c.2.2.1.53 0 .9l2.3.96c0-.16.1-.45 0-.56-.03-.15-.32-.5-.5-.7-.1-.2-.5-.8-.6-.9-.1-.2-.1-.5 0-.8.06-.3.8-2.3.86-2.5.1-.3 1.2-2.6 1.3-2.9.1-.3 1.02-2 1.14-2.3.1-.3.8-.6 1.1-.6.26 0 1.7.5 1.9.6.2.05 1.5.6 1.7.74.3.1.16.3-.02.4l-2.98 1c-.2.04-.35.2-.46.2-.2 0-.4.2-.4.25 0 .1-.02.33-.3.33-.23 0-.7-.34-.97-.7-.4.25-.67.4-.85.76-.23.3-.4.5-.52.9.14.12.36.2.54.2h1.8c.13 0 .4-.07.6-.1l4.7-3.1s.7-.6.7-1.1c0-.4-.34-.5-.45-.7-.2-.1-1.2-.8-1.4-.9-.2-.2-1-.66-1.3-.77-.2-.13-.8-.35-.8-.35l.3-1.05c0-.1 0-1.13.1-1.3 0-.2.3-.92.4-1.03.1-.1.4-1.04.4-1.2.1-.1.5-1.44.7-1.44.2-.06.4.17.7.17.2.1 1.1-.02 1.5 0 .4.1.9.6 1 .67.1.06.5.23.7.23 0 0 .6-.4.6-.5s-.5-.4-.5-.4l-.5-.3c0 .06.1-.1.4-.1s.5.2.5.3c.2.03.4.2.5.1.1-.07.3-.36.3-.53 0-.2-.2-.5-.4-.6-.1-.1-1.4-1.4-1.5-1.46-.1-.06-.8-.7-.8-.86-.1-.12-.4-.4-.5-.46s-1.8-1.24-2-1.42c-.3-.2-.5-.47-.5-.75 0-.3-.1-1.1-.1-1.1s-.4 0-.6.1-.6 1-.8 1c-.7-.1-1.5.1-1.5.2.05.2.6 0 .6 0s-.2.3-.4.3c-.1 0-.43.1-.5.2-.1 0-.3.2-.3.2h.6s-.4.2-.5.2c-.2 0-.8.2-1 .2-.1.1-.6.5-.6.5h-.5V4h.3v.1z"/>
  <path fill="#FFF" stroke="#F83838" stroke-miterlimit="10" d="M23.95 3.72c.05.06-.06.12-.06.12s-.4.1-.6.28c-.1.12-.3.52-.3.52.2-.06.5-.12.8-.23 0 0 .1.1.1.2 0 0-.7.3-.9.4-.1.1-.7.6-.9.6-.2 0-.6.1-.6.1l.2.4-.4.3-.4.4s1 .1 1.4-.4c-.4.6-1.2 1.2-2.8 1.2-1.7 0-3.1-.7-4-1-1-.4-2.2-.8-3.3-.8-1 0-2.2.3-2.9 1-1.3-.5-3.1-.2-4 .6-.8.8-1.6 1.8-1.7 2.5-.2.8-.6 2.5-1.1 3.4-.8 1.3-1.8 1.6-2 2.2-.2.4-.2 1.6-.2 1.6.1.1.5 0 .8-.1.4-.1 1.7-1.5 2.2-2.1.4-.6 2-3.4 2.2-4.4.2-1 .5-2 1.1-2.5.7-.5 1.7-.3 1.7-.2 0 0-.9.7-.9 2.6-.1 1.9 1.1 1.7.5 2.9-.6 1-2.3.3-2.9.9-.5.5 0 2.4 0 2.7 0 .4-.2 2-.3 2.4-.1.4 0 .6-.1.8-.1.2.4.3.4.3s-.4.5-.5.4c-.2-.04-.3-.04-.4 0-.1 0-.4.1-.6 0l-.9 1.96c.1.1.3.15.4.1.2-.07 1.4-.6 1.5-.7.2-.06 1.1-.6 1.3-.97.1-.35.4-1.4.4-1.78.1-.4.1-1.5.1-1.8v-1c.2-.2.3-.4.6-.5.3-.1.6-.1.7-.1l1.2.1c.2 0 1.2-.2 1.4-.3.3-.1.5 0 .5.1.1.1-.1.3-.1.3-.1.1-.5.6-.6.9-.1.2-.5.8-.4 1 .1.2.1.3.4.5.4.1 1.7.8 2.4 1.5.8.7 1.6 1.6 1.7 2.1.2.5.5.5.7.5.2.05.5.1.5.34s-.1.5-.1.5l2.1.85v-1.1c-.1-.36-.4-.7-.7-1-.3-.4-3.3-3.4-3.6-3.6-.26-.2-.5-.4-.55-.86-.1-.46.5-.8.8-1.2.2-.3.84-1.6.96-1.8.1-.1.5-.6.78-.6.3 0 .9.4 1.7.7.4.1 2.8.7 3.2.9.3 0 1.1 0 1.3.2.2.2 0 .64-.1.9-.03.4-.7 1.63-.7 1.63s.16.4.16.8-.2 1.8-.37 2.3c-.1.5-.9 1.8-1.1 2.05-.1.2-.25.3-.25.6s.5.3.7.54c.25.2.1.55 0 .9l2.3 1c0-.2.1-.5 0-.6-.04-.2-.33-.5-.5-.8-.1-.2-.5-.8-.63-.95-.1-.13-.1-.5 0-.8l.8-2.5c.1-.3 1.2-2.6 1.3-2.9.1-.33 1.06-2 1.17-2.3.1-.33.87-.6 1.1-.6.3 0 1.7.5 1.95.6.2.1 1.5.68 1.7.8.3.1.1.3-.1.4-.2.1-2.3 1.5-2.5 1.6-.1.06-.3.2-.4.2-.2 0-.4.2-.4.3 0 .1-.1.3-.4.3-.2 0-.7-.4-1-.7-.5.2-.7.4-.9.7-.3.3-.4.5-.6.9.1.1.3.2.5.2h2c.2 0 .4-.04.6-.1l4.7-3.1s.78-.6.78-1.1c0-.4-.3-.5-.45-.7l-1.35-.9c-.25-.2-1.05-.63-1.28-.74-.2-.1-.8-.3-.8-.3l.3-1.05c0-.1 0-1.15.1-1.3 0-.2.3-.9.4-1 .1-.1.4-1.06.4-1.2.1-.1.5-1.46.7-1.46.2-.1.4.13.7.13.2 0 1.1-.1 1.5 0 .4 0 .9.52 1.03.6.2 0 .6.2.7.2.1 0 .66-.4.66-.5s-.4-.4-.4-.4l-.5-.3c0 .1.2-.1.5-.1.2 0 .43.24.5.3.1.1.4.2.44.1.1 0 .3-.3.3-.5s-.2-.5-.35-.6c-.1-.1-1.4-1.4-1.5-1.4-.2-.07-.86-.7-.86-.88-.1-.1-.4-.4-.5-.44s-1.8-1.3-2-1.5c-.25-.1-.5-.4-.5-.7 0-.22-.1-1-.1-1s-.4-.1-.6.1c-.2.1-.6 1.08-.8 1.08-.65-.1-1.45.1-1.45.2 0 .2.6.1.6.1 0 .1-.2.4-.4.4-.1 0-.44.1-.5.1-.1 0-.34.2-.34.2.2 0 .35 0 .6.1 0 0-.38.2-.55.2-.2 0-.77.13-.9.2l-.6.42h-.5v.1h.3v.1z"/>
</svg>
