<svg xmlns="http://www.w3.org/2000/svg" viewBox="0 0 73 44">
  <g fill="none" fill-rule="evenodd">
    <g fill-rule="nonzero">
      <path fill="#F83838" d="M51.3625003 5.2298608H68.11713v33.3569444H51.3625003v4.7652778H68.11713c2.6328703 0 4.787037-2.144375 4.787037-4.7652778V5.2298608c0-2.6209028-2.1541667-4.7652778-4.787037-4.7652778H51.3625003v4.7652778zm1.7276111 14.1538889l-4.8876666-4.8843084 2.6711666-2.659025 9.4722223 9.4291667-9.4722223 9.4291667-2.6711666-2.659025 4.8876666-4.8843084H34.77083367v-3.7716666H53.0901114z"/>
      <path fill="#5A6574" d="M25.55 5.86666667h-14.6L.0365 17.3066667l-.0365 22.88C0 42.284 1.6425 44 3.65 44h21.9c2.0075 0 3.65-1.716 3.65-3.8133333V9.68c0-2.09733333-1.6425-3.81333333-3.65-3.81333333z"/>
    </g>
    <path fill="#F8E71C" d="M15 16h-3V9h3v7zm6 0h-3V9h3v7zm6 0h-3V9h3v7z"/>
  </g>
</svg>