<svg xmlns="http://www.w3.org/2000/svg" viewBox="0 0 24.37 24.37"><path fill="#FFF" d="M12.2 0C5.46 0 0 5.47 0 12.2s5.47 12.17 12.2 12.17S24.36 18.9 24.36 12.2 18.9 0 12.2 0zm1.7 1.87c-.17.5-1 .16-1.36.16.27-.1.68-.24.92-.43l.05-.06.47.1c-.13.04-.27.1-.4.18.1.02.2.02.32.05zm-4.26.2c.2.2.38-.1.57-.17.42-.22 1-.22 1.45-.33-.1.22-.74.14-.98.22-.3.1-.16.18-.35.5.08 0 .2.06.27.03v.05c-.2-.02-.4-.1-.44.14-.25-.38-.44-.35-.7 0 .26.16.53.32.32.6-.27.3-.4-.1-.17-.25-.23-.1-.42-.3-.6-.05l.23.02c-.05.06-.08.27-.13.3-.1.06-.5-.08-.6-.08-.3-.03-.57-.03-.86 0 .05.35-.35.03-.5-.08.28-.27.58-.16.9-.14.25.03.63.03.65-.3-.28-.05-.4-.05-.55-.24 0-.02-.03-.05-.03-.05.5-.2 1-.35 1.52-.5-.08.15-.1.25 0 .33zM1.46 12.2c0-2.56.9-4.9 2.38-6.73l.46.35c.2.17.28.36.38.55l.14.24c.13.14.22.28.24.44.03.2-.05.38-.05.6-.04.65.04 1.24.55 1.7.14.14.33.2.46.33.15.13.15.24.23.38.22.38.54.75.8 1.1.25.33.34.25.12-.07-.16-.22-.35-.44-.5-.68 0-.03-.12-.35-.1-.33.36.1.44.33.68.63.22.3.43.46.57.78.16.4.4.6.79.8.17.07.5.3.72.34.24.03.37-.13.6-.03.15.07.26.3.45.37.2.06.3-.02.5.1.2.15.26.4.45.53.13.1.32.24.5.27.15.02.3-.08.4-.03.2.08.26.35.2.57-.07.25-.3.4-.4.66-.08.22-.02.4-.05.62-.03.22-.22 0-.03.38.08.16.2.33.3.5.22.3.35.58.62.83.2.18.63.37.7.64.1.24.04.76-.02 1-.08.5-.08 1.14-.22 1.62-.13.46-.3.63-.2 1.1.07.23.1.12 0 .42v.2c-.07.15-.23.26-.3.45.2 0 .2.08.18.16-.3.02-.57.05-.87.05C6.28 22.9 1.46 18.1 1.46 12.2zM14.22 22.7c-.06-.05-.1-.13-.1-.16 0-.05.2-.35.23-.4.06-.1.08-.36.17-.44.1-.13.38-.08.32-.38.57 0 .8-.08.9-.67-.1-.06-.1-.03-.1-.1 0 .1.42-.07.45 0 0 .07.53-.64.58-.7.14-.15.27-.26.36-.45.02-.08.08-.3.16-.4 0 .02 0 .02-.03.05.2-.3.4-.25.68-.38.27-.12.08-.1.27-.28.24-.22.27-.08.35-.46.05-.27-.03-.52.08-.73.1-.3.35-.4.54-.65.13-.2.26-.52.07-.7-.13-.17-.6-.3-.78-.36-.25-.05-.53-.05-.74-.16-.27-.1-.46-.38-.6.05-.05 0-.22-.12-.22-.18 0 .1.25-.08.3-.13-.1 0-.48.07-.54.04.03-.1.22-.35.22-.38.02-.27-.35-.57-.57-.62-.27-.08-.43-.05-.68-.22-.3-.2-.57-.46-.95-.48l-.24.02c-.2-.02-.27-.16-.43-.2-.22-.04-.3.15-.4.15-.2 0-.23-.18-.5-.02-.4.24-.2.38-.62.27-.24-.05-.5.08-.73-.08-.22-.13-.24-.54-.05-.7-.1.08-.1-.2-.17-.25-.1-.08-.3 0-.43-.02-.2-.06-.3-.06-.24-.25.06-.2.58-.7.03-.7-.3 0-.38.43-.67.48-.33.06-.63-.05-.82-.35-.35-.62.22-1.38.82-1.43.46-.06 1.13-.38 1.5.13.1.14.34.73.45.35.03-.1-.1-.6-.13-.8.08-.14.25-.25.35-.36-.02 0-.02.03-.05.05.1-.1.43-.27.5-.43 0-.1-.12-.23-.04-.33.05-.1.2-.06.24-.1.08-.1.08-.25.17-.36.08-.1.24-.1.32-.18.2-.17.24-.38.46-.46.22-.14.43-.38.7-.27-.1.1-.35.18-.4.26-.06.08.35.02.4 0 .22-.08.4-.27.63-.38.32-.22.73-.25 1.13-.16.14.02-.2-.5-.27-.52-.12-.16-.15-.3-.4-.1-.05.05-.13.26-.18.35-.14.27-.1.2-.44.37l.06-.02c-.22.05-.46.13-.54-.14-.03-.1.1-.24.02-.32-.16-.22-.7.24-.9.3.12-.8 1.04-.38 1.53-.52.13-.05.65-.24.67-.35.06-.2-.4-.5-.48-.57-.22-.2-.33-.3-.46-.57-.14-.3-.22-.62-.55-.38-.1.08-.02.27-.24.3-.14.03-.28-.14-.36-.22-.1-.1-.25-.4-.43-.43-.18-.03-.67-.27-.9-.1-.18.13.04.6.1.78.1.38.18.38-.14.62-.16.1-.25 0-.2.3.03.16.22.2.1.32-.1.08-.28.08-.36.03-.27-.14-.03-.3-.17-.5-.1-.13-.65-.24-.8-.32-.4-.2-1.5-.38-1.14-1 .07-.16.42-.43.55-.5.17-.12.36-.15.5-.28.07-.1.07-.3.13-.36.08-.1.35-.06.5-.03.63-.14.07-1.03.88-.87.22.05.46.27.65.4.23.14.28.14.23.36-.03.05-.25.27-.3.32-.1.08-.3.14-.4.2.42 0 .6-.03.97.2.3.2.48.33.86.33-.02-.18-.35-.1-.32-.28 0-.17.2.05.22.05.1 0 .38.14.32-.16-.05-.23-.6-.13-.43-.53.24-.03.2.24.35.3.16.05.4-.17.43-.3-.24-.14-1-.33-.92-.68.5.32 1 .64 1.5.94-.4.35.3.16.32.16.1.03.44.3.22.35-.22.06-.32-.24-.5-.03.15.06.77.1.6.4-.04.15-.45.12-.56.4.08-.04.16 0 .27 0-.2.3.08.48.25.72.16.27.4.68.75.76.73.2.65-1 1.2-1.2.16-.05.32-.02.48-.05.16-.05.27-.16.4-.27.3-.22.58-.24.9-.24 1.08 1.08 1.92 2.4 2.47 3.9-.06.02-.1.05-.14.1-.05.06-.05.1-.08.2l-.08.08c-.06.1 0 .24 0 .35 0 .13-.06.24.03.35.05.1.16.22.27.3.08.08.2.16.3.16.02 0 .1 0 .16-.03l.08.5c-.1.1-.25.24-.3.34-.08.16-.08.26-.24.4-.14.13-.3.16-.44.32-.1.17-.1.28-.2.44-.04.08-.15.1-.18.2-.1.23.03.58 0 .83 0 .28-.1.53.06.8.16.24.4.5.62.65.13.13.3.24.46.3-1.2 3.9-4.44 7-8.5 7.77z"/></svg>