<svg xmlns="http://www.w3.org/2000/svg" viewBox="0 0 59 115.08"><path fill="#389437" d="M8.52 7.55L59 0v115.08l-50.67-8.56c-4.8-.8-8.33-4.98-8.33-9.86V17.44c0-4.95 3.62-9.16 8.52-9.9z"/><path fill="#FEFEFE" d="M41.98 71.27c0 .5-.37.92-.84.92H22.82c-.46 0-.84-.5-.84-1v-24c0-.5.38-.94.84-.94h3.74v.8c0 1.1.8 1.96 1.8 1.96h7.16c1 0 1.8-.88 1.8-1.95v-.88h3.82c.47 0 .84.4.84.9v24.1zM31.05 40.4c.23-.26.52-.4.93-.4.6 0 1 .18 1.28.54.36.48.45 1.26.44 1.87h-3.2c.04-.6.16-1.5.55-2zm10.1 3.82H37.3c-.06-1-.83-1.8-1.78-1.8h-.24c0-.88-.12-2.07-.8-2.97-.4-.53-1.16-1.16-2.5-1.16-.86 0-1.6.3-2.1.9-.75.9-.93 2.2-.95 3.13h-.58c-.95 0-1.73.8-1.8 1.8h-3.73c-1.5 0-2.73 1.35-2.73 2.98v24.1c0 1.65 1.2 3 2.7 3h18.3c1.5 0 2.7-1.35 2.7-3v-24c0-1.65-1.24-2.98-2.75-2.98z"/><path fill="#FFF" d="M41.98 71.27c0 .5-.37.92-.84.92H22.82c-.46 0-.84-.5-.84-1v-24c0-.5.38-.94.84-.94h3.74v.8c0 1.1.8 1.96 1.8 1.96h7.16c1 0 1.8-.88 1.8-1.95v-.88h3.82c.47 0 .84.4.84.9v24.1zM31.05 40.4c.23-.26.52-.4.93-.4.6 0 1 .18 1.28.54.36.48.45 1.26.44 1.87h-3.2c.04-.6.16-1.5.55-2zm10.1 3.82H37.3c-.06-1-.83-1.8-1.78-1.8h-.24c0-.88-.12-2.07-.8-2.97-.4-.53-1.16-1.16-2.5-1.16-.86 0-1.6.3-2.1.9-.75.9-.93 2.2-.95 3.13h-.58c-.95 0-1.73.8-1.8 1.8h-3.73c-1.5 0-2.73 1.35-2.73 2.98v24.1c0 1.65 1.2 3 2.7 3h18.3c1.5 0 2.7-1.35 2.7-3v-24c0-1.65-1.24-2.98-2.75-2.98z"/><path fill="#FEFEFE" d="M38.86 53.23c.44 0 .8.38.8.85 0 .48-.36.86-.8.86H25.2c-.44 0-.8-.38-.8-.86 0-.47.36-.85.8-.85h13.66zm0 5.15c.44 0 .8.38.8.85s-.36.86-.8.86H25.2c-.44 0-.8-.4-.8-.9s.36-.9.8-.9h13.66zm0 4.86c.44 0 .8.38.8.86s-.36.85-.8.85H25.2c-.44 0-.8-.38-.8-.85s.36-.86.8-.86h13.66z"/><path fill="#FFF" d="M38.86 53.23c.44 0 .8.38.8.85 0 .48-.36.86-.8.86H25.2c-.44 0-.8-.38-.8-.86 0-.47.36-.85.8-.85h13.66zm0 5.15c.44 0 .8.38.8.85s-.36.86-.8.86H25.2c-.44 0-.8-.4-.8-.9s.36-.9.8-.9h13.66zm0 4.86c.44 0 .8.38.8.86s-.36.85-.8.85H25.2c-.44 0-.8-.38-.8-.85s.36-.86.8-.86h13.66z"/></svg>