<svg xmlns="http://www.w3.org/2000/svg" viewBox="0 0 74 40"><g fill="none" fill-rule="evenodd"><path fill="#E14031" fill-rule="nonzero" d="M37 17.1428571c4.5057143 0 8.1157143-3.8285714 8.1157143-8.57142853C45.1157143 3.82857143 41.5057143 0 37 0c-4.5057143 0-8.1428571 3.82857143-8.1428571 8.57142857 0 4.74285713 3.6371428 8.57142853 8.1428571 8.57142853zm0 5.7142858c-6.3242857 0-19 3.3428571-19 10V40h38v-7.1428571c0-6.6571429-12.6757143-10-19-10z"/><path fill="#5A6574" d="M16.8 19.4285714c3.984 0 7.2-3.4457143 7.2-7.7142857C24 7.4457143 20.784 4 16.8 4s-7.176 3.4457143-7.176 7.7142857c0 4.2685714 3.192 7.7142857 7.176 7.7142857zm0 5.1428572c-5.592 0-16.8 3.0085714-16.8 9V40h14.4v-6.4285714C14.4 29.7657143 16.344 26.86 19.128 24.7c-.84-.0771429-1.632-.1285714-2.328-.1285714zm40.4-5.1428572c-3.984 0-7.2-3.4457143-7.2-7.7142857C50 7.4457143 53.216 4 57.2 4s7.176 3.4457143 7.176 7.7142857c0 4.2685714-3.192 7.7142857-7.176 7.7142857zm0 5.1428572c5.592 0 16.8 3.0085714 16.8 9V40H59.6v-6.4285714C59.6 29.7657143 57.656 26.86 54.872 24.7c.84-.0771429 1.632-.1285714 2.328-.1285714z"/></g></svg>