<?xml version="1.0" encoding="UTF-8" standalone="no"?>
<svg width="30px" height="30px" viewBox="0 0 30 30" version="1.1" xmlns="http://www.w3.org/2000/svg" xmlns:xlink="http://www.w3.org/1999/xlink">
    <!-- Generator: Sketch 45.1 (43504) - http://www.bohemiancoding.com/sketch -->
    <title>icon/graph</title>
    <desc>Created with Sketch.</desc>
    <defs>
        <path d="M5.925,24.075 L24.9,24.075 C25.3556349,24.075 25.725,24.4443651 25.725,24.9 C25.725,25.3556349 25.3556349,25.725 24.9,25.725 L5.1,25.725 C4.87218254,25.725 4.66593254,25.6326587 4.51663691,25.4833631 C4.36734127,25.3340675 4.275,25.1278175 4.275,24.9 L4.275,5.1 C4.275,4.64436508 4.64436508,4.275 5.1,4.275 C5.55563492,4.275 5.925,4.64436508 5.925,5.1 L5.925,24.075 Z M15.3866193,18.6408997 L12.8298195,14.5086526 L9.16127738,20.9578634 C8.93599367,21.3539069 8.43230848,21.492335 8.03626501,21.2670513 C7.64022154,21.0417676 7.5017934,20.5380824 7.72707711,20.1420389 L12.0828999,12.4846049 C12.3925605,11.9402287 13.1720326,11.9258466 13.5015643,12.4584289 L15.9334037,16.3887175 L19.7351532,6.98605223 C20.0087963,6.30926524 20.9619188,6.2952117 21.2553967,6.96363664 L24.6307263,14.6512831 C24.8138991,15.0684772 24.6241873,15.5551707 24.2069932,15.7383435 C23.7897992,15.9215163 23.3031056,15.7318045 23.1199329,15.3146104 L20.5313099,9.41876611 L16.8530304,18.5160596 C16.5997636,19.1424509 15.7421271,19.2154641 15.3866193,18.6408997 Z" id="path-1"></path>
    </defs>
    <g id="Symbols" stroke="none" stroke-width="1" fill="none" fill-rule="evenodd">
        <g id="icon/graph">
            <mask id="mask-2" fill="white">
                <use xlink:href="#path-1"></use>
            </mask>
            <use id="Combined-Shape" fill="#42B6F6" fill-rule="nonzero" xlink:href="#path-1"></use>
            <g id="color/red" mask="url(#mask-2)" fill="#E14031">
                <g transform="translate(2.000000, 1.000000)" id="Rectangle-Copy-2">
                    <rect x="0" y="0" width="28" height="28.1694462"></rect>
                </g>
            </g>
        </g>
    </g>
</svg>