<svg xmlns="http://www.w3.org/2000/svg" viewBox="0 0 22.37 19.5"><path fill="#FFF" d="M1.05 2.92l.14 9.87 9.4 5.2V7.7L1 2.9zm-.3-1.27L11.4 6.97c.16.08.27.26.27.45v11.42c0 .38-.4.62-.74.44L.45 13.52C.3 13.44.2 13.27.2 13.1l-.16-11c0-.37.4-.6.72-.45z"/><path fill="#FFF" d="M15.5 11.74h5.87V6.5H15.5v5.24zm-.24.98v3.12c0 .27-.23.5-.5.5h-.06l-3.14 3.02c-.2.2-.5.18-.7 0-.2-.2-.2-.53 0-.72l3.3-3.17c.02-.03.06-.06.1-.08V11L11 12.94c-.13.1-.3.1-.47.02l-4.45-2.23v3.7c0 .27-.23.5-.5.5-.28 0-.5-.23-.5-.5v-4.2L1.12 8.25C.88 8.13.78 7.83.9 7.58c.12-.25.42-.35.67-.22l3.5 1.75V5c0-.2.12-.37.3-.46L8.9 2.78 5 1.04.68 2.58c-.27.1-.56-.04-.65-.3s.04-.54.3-.64l4.5-1.6c.12-.05.25-.05.37 0L8.47 1.5v-1c0-.28.22-.5.5-.5h12.9c.28 0 .5.22.5.5v11.74c0 .28-.22.5-.5.5h-6.45c-.06 0-.1 0-.16-.02zm-5.8-10.8l.63.3c.2-.07.4.03.5.23l3.8 1.7V1h-5v.93zM15.5 1v4.5h5.87V1H15.5zM6.08 9.6l4.66 2.33 3.52-2.08V5.83l-2.5 1.56c-.22.1-.53 0-.68-.2-.15-.3-.08-.6.16-.7l2.55-1.6-3.7-1.7-4.1 2v4.3z"/></svg>