<svg xmlns="http://www.w3.org/2000/svg" viewBox="0 0 19 20" xmlns:xlink="http://www.w3.org/1999/xlink">
  <defs>
    <path id="a" d="M3.68 15.6H0V4.46h.02L0 4.1C0 1.82 1.83 0 4.1 0h8c2.26 0 4.1 1.83 4.1 4.1 0 2.24-1.84 4.07-4.1 4.07H4.43v5.95h-1.5v1.48h.75zm7.36-9.66c1.22 0 2.2-1 2.2-2.23 0-1.2-.98-2.2-2.2-2.2-1.22 0-2.2 1-2.2 2.2 0 1.27.98 2.26 2.2 2.26z"/>
    <path id="b" d="M-1 17.5c.72.02.98.23.98.73 0 1.12.75 1.68 1.97 1.57 1.17 0 1.9-.56 1.9-1.57 0-.38.16-.5.76-.45.6.03.8.17.8.45 0 .98.6 1.35 1.6 1.38l.36.04c.9 0 1.88-.65 1.83-1.42 0-.26.04-.32.5-.27.33.05.55.12.65.2.04.02.04.04.05.1v.07c0 .24.02.35.07.52.2.73.82 1.12 1.86.98 1.24-.16 1.92-.7 1.62-1.6-.05-.2 0-.22.68-.13l.12-1c-1.28-.17-2.05.32-1.75 1.4.03.14-.1.24-.8.33-.57.1-.72 0-.78-.23-.02-.08-.03-.15-.04-.33v-.13c-.08-.65-.58-1.02-1.6-1.16-1.1-.15-1.66.47-1.6 1.33 0 .07-.44.37-.84.37h-.3c-.53-.03-.66-.1-.66-.4 0-.88-.64-1.38-1.7-1.43-1.13-.1-1.84.4-1.84 1.43 0 .4-.23.56-.94.57-.72.07-.92-.1-.92-.57 0-1.1-.73-1.7-1.97-1.73v1z"/>
  </defs>
  <g fill="#FFF" fill-rule="evenodd" transform="translate(2)">
    <use xlink:href="#a"/>
    <use fill-rule="nonzero" xlink:href="#b"/>
  </g>
</svg>