<svg xmlns="http://www.w3.org/2000/svg" viewBox="280.71 2.65 804.57 764.34">
  <path fill="#FFF" d="M372.14 145.28l69.5 62.17 51.2-51.2L427 90.42l-54.86 54.86zm274.3-36.57h73.13V2.66h-73.14V108.7zm146.27 512v73.15H573.3V620.7h73.13V437.86h73.14V620.7h73.14zm-512-182.85V364.7h109.73v73.15H280.7zm512 153.6c65.84-36.57 109.73-109.72 109.73-190.17 0-120.7-98.74-219.43-219.43-219.43S463.57 280.6 463.57 401.28c0 80.46 43.9 153.6 109.7 190.17V767h219.44V591.44zm292.6-153.6V364.7H975.56v73.15h109.72zm-160.93-230.4l65.83-65.83-51.2-51.2-65.83 65.83 51.2 51.2z"/>
</svg>
