<svg xmlns="http://www.w3.org/2000/svg" viewBox="0 0 22 22" xmlns:xlink="http://www.w3.org/1999/xlink">
  <title>
    icon/MIS
  </title>
  <defs>
    <path id="a" d="M14.04 13.2c-.9.3-1.56 1.14-1.57 2.15-.03 1.26.95 2.3 2.17 2.32.75 0 1.4-.35 1.82-.93l.03.04 4.9-6.82-7.4 3.2v.05z"/>
    <path id="c" d="M23.5 21.54c-.57.84-1.26 1.6-2.05 2.23l-1.33-1.7c.63-.6 1.17-1.3 1.6-2.06l1.8 1.6zm1.52-3.23c.25-.9.38-1.8.38-2.8 0-1.8-.45-3.5-1.25-5L22.22 13c.36.9.55 1.94.55 3 0 .66-.07 1.3-.2 1.9l2.45.52zm-6.04 7c-.84.4-1.74.6-2.68.7l-.13-1.8h-.12c.83-.1 1.62-.4 2.34-.8l.5 2zm-5.33.7c-.87-.1-1.7-.3-2.48-.7l.52-1.5c.7.3 1.4.5 2.3.57l-.4 1.7zM8.7 23.8c-.45-.37-.87-.78-1.26-1.2l1-1.3c.35.45.76.86 1.2 1.2l-.94 1.3zm-3.45-5.2c-.28-.98-.44-2-.44-3.08 0-5.86 4.7-10.6 10.3-10.6 2.7 0 5.1 1.03 6.9 2.73l-3.1 1.1c-1.3-.75-2.7-1.17-4.2-1.17-4.5 0-8.1 3.73-8.1 8.33 0 .8.1 1.6.3 2.3l-1.6.3z"/>
  </defs>
  <g fill="none" fill-rule="evenodd" transform="translate(-4 -4)">
    <mask id="b" fill="#fff">
      <use xlink:href="#a"/>
    </mask>
    <use fill="#FFF" stroke="#FFF" stroke-linecap="round" stroke-linejoin="round" xlink:href="#a"/>
    <path fill="#FFF" d="M0 0h28v28.17H0z" transform="translate(1 1)" mask="url(#b)"/>
    <mask id="d" fill="#fff">
      <use xlink:href="#c"/>
    </mask>
    <use fill="#FFF" xlink:href="#c"/>
    <path fill="#FFF" d="M0 0h28v28.17H0z" transform="translate(1 1)" mask="url(#d)"/>
  </g>
</svg>