<svg xmlns="http://www.w3.org/2000/svg" xmlns:xlink="http://www.w3.org/1999/xlink" width="120" height="101" version="1.1" viewBox="0 0 120 101"><title>Group</title><desc>Created with Sketch.</desc><g id="Tablet" fill="none" fill-rule="evenodd" stroke="none" stroke-width="1"><g id="Home/EMPTY" transform="translate(-907.000000, -214.000000)"><g id="Group" transform="translate(907.000000, 214.000000)"><polygon id="Rectangle-path-Copy" fill="#F8E71C" points="90.044 87.672 90.044 58.32 109.013 58.32 109.013 87.672"/><polygon id="Rectangle-path-Copy-2" fill="#F4A026" points="14.029 88 14.029 46.29 32.998 46.29 32.998 88"/><polygon id="Rectangle-path-Copy-3" fill="#F8E71C" points="39.026 88.274 39.026 30.971 57.995 30.971 57.995 88.274"/><polygon id="Rectangle-path-Copy-4" fill="#F5A623" points="64.78 88.098 64.78 7.742 83.749 7.742 83.749 88.098"/><path id="Combined-Shape" fill="#4C4747" d="M5.12481053,92.242774 L5.12481053,97.0663612 C5.12481053,98.4758526 3.97742405,99.6187571 2.56240526,99.6187571 C1.14738648,99.6187571 6.94141283e-14,98.4758526 6.94141283e-14,97.0663612 L6.94141283e-14,90.8132143 L6.94141283e-14,85.7084226 L1.24409672e-15,7.37598305 L7.99360578e-15,2.55239587 C7.99360578e-15,1.1429045 1.14738648,0 2.56240526,0 C3.97742405,0 5.12481053,1.1429045 5.12481053,2.55239587 L5.12481053,8.80554276 L5.12481053,13.9103345 L5.12481053,92.242774 Z"/><path id="Combined-Shape" fill="#4C4747" d="M62.2820764,150.044903 L62.2820764,154.86849 C62.2820764,156.277981 61.13469,157.420886 59.7196712,157.420886 C58.3046524,157.420886 57.1572659,156.277981 57.1572659,154.86849 L57.1572659,148.615343 L57.1572659,143.510551 L57.1572659,65.1781117 L57.1572659,40.5339393 C57.1572659,39.1244479 58.3046524,37.9815434 59.7196712,37.9815434 C61.13469,37.9815434 62.2820764,39.1244479 62.2820764,40.5339393 L62.2820764,66.6076714 L62.2820764,71.7124632 L62.2820764,150.044903 Z" transform="translate(59.719671, 97.701215) rotate(-270.000000) translate(-59.719671, -97.701215)"/></g></g></g></svg>