<svg xmlns="http://www.w3.org/2000/svg" xmlns:xlink="http://www.w3.org/1999/xlink" width="126" height="93" version="1.1" viewBox="0 0 126 93"><title>Group 4</title><desc>Created with Sketch.</desc><g id="Tablet" fill="none" fill-rule="evenodd" stroke="none" stroke-width="1"><g id="Home/EMPTY" transform="translate(-455.000000, -214.000000)"><g id="Group-4" transform="translate(455.000000, 214.000000)"><rect id="Rectangle-path" width="40.113" height="13.238" x="15.992" y="78.816" fill="#F8E71C"/><rect id="Rectangle-path" width="57" height="13.238" x="15.992" y="52.544" fill="#F4A026"/><rect id="Rectangle-path" width="78.308" height="13.238" x="15.992" y="26.272" fill="#F5E200"/><rect id="Rectangle-path" width="109.812" height="13.238" x="15.992" y="0" fill="#F5A623"/><path id="Combined-Shape-Copy" fill="#4C4747" d="M0,8.50154888 L0,75.9422392 L0,81.8260158 L0,89.0333852 C0,90.6579632 1.32247622,91.9752735 2.95342512,91.9752735 C4.58437401,91.9752735 5.90685023,90.6579632 5.90685023,89.0333852 L5.90685023,81.8260158 L5.90656355,75.9422392 L5.90656355,72.1270939 L5.90656355,64.4276964 L5.90656355,57.0729757 L5.90656355,60.7961692 L5.90656355,53.4414485 L5.90656355,50.8536605 L5.90685023,16.0330342 L5.90685023,10.1492576 L5.90685023,2.9418883 C5.90685023,1.3173103 4.58437401,1.42108547e-14 2.95342512,1.42108547e-14 C1.32247622,1.42108547e-14 7.99360578e-15,1.3173103 7.99360578e-15,2.9418883 L7.30847777e-15,8.50154888 Z"/></g></g></g></svg>