<?xml version="1.0" encoding="UTF-8" standalone="no"?>
<svg width="126px" height="93px" viewBox="0 0 126 93" version="1.1" xmlns="http://www.w3.org/2000/svg" xmlns:xlink="http://www.w3.org/1999/xlink">
    <!-- Generator: Sketch 45.1 (43504) - http://www.bohemiancoding.com/sketch -->
    <title>Group 4</title>
    <desc>Created with Sketch.</desc>
    <defs></defs>
    <g id="Tablet" stroke="none" stroke-width="1" fill="none" fill-rule="evenodd">
        <g id="Home/EMPTY-Copy-2" transform="translate(-455.000000, -218.000000)">
            <g id="Group-4" transform="translate(455.000000, 218.000000)">
                <rect id="Rectangle-path" fill="#81B6F1" x="15.9916273" y="78.8158776" width="40.1126275" height="13.2382118"></rect>
                <rect id="Rectangle-path" fill="#3C7CC0" x="15.9916273" y="52.5439184" width="57.0000727" height="13.2382118"></rect>
                <rect id="Rectangle-path" fill="#81B6F1" x="15.9916273" y="26.2719592" width="78.3084816" height="13.2382118"></rect>
                <rect id="Rectangle-path" fill="#3C7CC0" x="15.9916273" y="0" width="109.812256" height="13.2382118"></rect>
                <path d="M0,8.50154888 L0,75.9422392 L0,81.8260158 L0,89.0333852 C0,90.6579632 1.32247622,91.9752735 2.95342512,91.9752735 C4.58437401,91.9752735 5.90685023,90.6579632 5.90685023,89.0333852 L5.90685023,81.8260158 L5.90656355,75.9422392 L5.90656355,72.1270939 L5.90656355,64.4276964 L5.90656355,57.0729757 L5.90656355,60.7961692 L5.90656355,53.4414485 L5.90656355,50.8536605 L5.90685023,16.0330342 L5.90685023,10.1492576 L5.90685023,2.9418883 C5.90685023,1.3173103 4.58437401,1.42108547e-14 2.95342512,1.42108547e-14 C1.32247622,1.42108547e-14 7.99360578e-15,1.3173103 7.99360578e-15,2.9418883 L7.30847777e-15,8.50154888 Z" id="Combined-Shape-Copy" fill="#4C4747"></path>
            </g>
        </g>
    </g>
</svg>