<?xml version="1.0" encoding="UTF-8" standalone="no"?>
<svg width="113px" height="116px" viewBox="0 0 113 116" version="1.1" xmlns="http://www.w3.org/2000/svg" xmlns:xlink="http://www.w3.org/1999/xlink">
    <!-- Generator: Sketch 45.1 (43504) - http://www.bohemiancoding.com/sketch -->
    <title>Group 3</title>
    <desc>Created with Sketch.</desc>
    <defs></defs>
    <g id="Tablet" stroke="none" stroke-width="1" fill="none" fill-rule="evenodd">
        <g id="Home/EMPTY-Copy-2" transform="translate(-461.000000, -496.000000)">
            <g id="Group-3" transform="translate(461.000000, 496.000000)">
                <path d="M112.259583,102.494082 L103.62508,94.6181709 C102.6639,93.7418043 101.210095,93.8507982 100.377205,94.8624194 C99.5443145,95.8738082 99.6483154,97.4043704 100.609054,98.2807369 L104.578974,101.901936 L93.8277981,101.901936 L89.2226119,101.901936 L77.7100881,101.901936 L73.1049019,101.901936 L61.592378,101.901936 L56.9871918,101.901936 L45.474668,101.901936 L40.8694818,101.901936 L29.3569579,101.901936 L24.7517717,101.901936 L13.2394687,101.901936 L13.2394687,79.1326742 L13.2394687,72.5344778 L13.2394687,64.8244974 L13.2394687,59.9776397 L13.2394687,47.8607277 L13.2394687,43.01387 L13.2394687,30.8971905 L13.2394687,26.0503328 L13.2394687,8.91947017 L16.6801098,13.0977237 C17.1356381,13.6508269 17.776425,13.934118 18.4209656,13.934118 C18.9553226,13.934118 19.4923294,13.7393699 19.9279849,13.3422046 C20.8891652,12.4656057 20.9929453,10.9350435 20.1600549,9.92388708 L12.6768481,0.83626124 C12.5726264,0.70983764 12.4913688,0.625942567 12.4271135,0.577836528 C12.2272816,0.399123755 11.9974198,0.253178864 11.7419441,0.152783652 C10.8414862,-0.20045876 9.82687026,0.0716773351 9.19712386,0.83626124 L1.71391711,9.92388708 C0.881026702,10.9350435 0.98480679,12.4656057 1.94554543,13.3422046 C2.90672569,14.2185711 4.36030935,14.1095773 5.19342056,13.0979561 L8.63428249,8.91970257 L8.63428249,101.902401 L2.3025931,101.902401 C1.03117662,101.902169 0,102.986995 0,104.325598 C0,105.664201 1.03117662,106.749027 2.3025931,106.749027 L8.6345033,106.749027 L8.6345033,112.686288 C8.6345033,114.024658 9.66567992,115.109717 10.9370964,115.109717 C12.2085129,115.109717 13.2396895,114.024891 13.2396895,112.686288 L13.2396895,106.749027 L104.579415,106.749027 L100.609496,110.370226 C99.6483154,111.246825 99.5445353,112.777387 100.377426,113.788544 C100.832954,114.341647 101.473741,114.624938 102.118281,114.624938 C102.652639,114.624938 103.189645,114.43019 103.625301,114.033025 L112.259804,106.157113 C112.387432,106.040683 112.474209,105.945632 112.528749,105.864759 C112.688173,105.661179 112.81845,105.429248 112.909203,105.172682 C113.244611,104.224505 112.985823,103.156644 112.259583,102.494082 Z" id="Shape-Copy-2" fill="#4C4747"></path>
                <path d="M42.4362588,73.8851272 C44.4672315,75.3943581 45.9494748,75.3166385 46.8829887,73.6519683 C46.9577201,73.518705 47.0171466,73.3962929 47.0612682,73.2847318 L47.0903069,73.2807442 L61.8279626,50.5102069 L76.1564598,56.1603037 C77.3285123,56.6225376 78.6639633,56.0812289 79.1493008,54.9482522 L90.8382509,27.6683094 L93.8530266,21.2179383 L103.096666,29.3713102 C103.993371,30.2467045 105.45115,30.2512046 106.353153,29.3815963 C107.255377,28.511988 107.259794,27.0969994 106.363973,26.2213909 L94.7743867,14.8995535 C94.2320805,14.3698167 93.4526258,14.1377354 92.6970185,14.2817415 C91.9418527,14.4259619 91.3103399,14.9265546 91.0148978,15.6163696 L75.7742399,51.1856641 L61.7723188,45.6641441 C60.736726,45.2561268 59.5498793,45.627714 58.9559039,46.5459673 L44.0296775,69.6079455 C44.0296775,69.6079455 40.2854098,67.4622563 38.4132759,66.3894116 C35.5558347,64.751927 29.8409523,61.4769578 29.8409523,61.4769578 C28.965225,60.9750793 27.8545572,61.0899413 27.1075614,61.7598269 L14.854666,72.7450072 L14.854666,78.8292652 L28.9740573,66.1704426 L42.4362588,73.8851272 Z" id="Combined-Shape" stroke="#3C7CC0" stroke-width="3" fill="#3C7CC0"></path>
            </g>
        </g>
    </g>
</svg>