<svg xmlns="http://www.w3.org/2000/svg" xmlns:xlink="http://www.w3.org/1999/xlink" viewBox="0 0 133 134"><defs><path id="a" d="M0 114.48V.18h132.5v114.3z"/><path id="c" d="M79.82 40.48H.22V.58h79.6z"/></defs><g fill="none" fill-rule="evenodd"><path fill="#D8D8D8" d="M69.86 13L41.9 16.32 21.72 70.3 19 111.93c1.8 3.17 5.9 6.67 12.35 10.52 6.44 3.84 19.28 2.24 38.5-4.8l36.68 1.77c5.88-5.1 9.05-8.02 9.5-8.8.48-.8-4.58-30.98-15.16-90.55l-31-7.08z"/><g transform="translate(0 .432)"><mask id="b" fill="#fff"><use xlink:href="#a"/></mask><path fill="#4A4A4A" d="M96.47 45.33C96.5 28.53 83 15.03 66.05 14.9c-16.94-.12-30.72 13.57-30.7 30.5 0 16.66 13.76 30.46 30.46 30.56 16.8.1 30.65-13.72 30.68-30.63M20.7 114.48C-5.23 90.25-7.92 47.42 19.1 19.75c25.94-26.6 70.2-25.95 95.5 1.2 26.14 28.05 21.76 69.63-.74 91.28-22.72-38.48-72.12-36.86-93.13 2.25" mask="url(#b)"/></g><g transform="translate(27.403 92.605)"><mask id="d" fill="#fff"><use xlink:href="#c"/></mask><path fill="#4A4A4A" d="M.23 27.8C8.03 13.1 19.1 2.7 36.3.8c19.95-2.2 35.6 10.1 43.52 25.34C56.7 45.26 21.9 44.7.22 27.8z" mask="url(#d)"/></g><path fill="#4A4A4A" d="M66.05 23.65C78.03 23.72 88 33.7 88.02 45.67c.02 12.26-9.8 22.12-22.06 22.13-12.3 0-22.1-9.78-22.08-22.05.02-12.2 10.04-22.17 22.17-22.1z"/></g></svg>