<svg xmlns="http://www.w3.org/2000/svg" xmlns:xlink="http://www.w3.org/1999/xlink" viewBox="0 0 33 23"><defs><path id="a" d="M22.48 11.9l14.57 4.38-14.57 4.67-14.63-4.67 14.63-4.4zM38.25 16c.04.03.07.08.07.14v2.7c0 .1-.05.16-.13.2l-15.7 5h-.1l-15.7-5c-.1-.04-.2-.1-.2-.2V16c0-.1.1-.2.2-.3L22.2 11h.25L38 15.7c.12.1.2.1.25.2zm-.2 4.25c.07-.02.14 0 .2.03.04.04.07.1.07.15v.93c0 .08-.05.15-.13.18l-15.7 5c0 .02-.1.02-.1.02h-.1L6.7 21.53c-.07-.03-.12-.1-.12-.18v-.93c0-.06.03-.1.08-.15.05-.04.12-.05.18-.03l15.64 5 15.58-5zm0 3.03c.07-.02.14 0 .2.03.04.1.07.1.07.2v4.6c0 .1-.05.2-.13.2l-15.7 5h-.2l-15.7-5c-.1 0-.2-.1-.2-.2v-4.6s0-.1.1-.1h.2l15.6 5 15.6-5z"/></defs><use fill="#515150" fill-rule="evenodd" transform="translate(-6 -11)" xlink:href="#a"/></svg>