<svg xmlns="http://www.w3.org/2000/svg" viewBox="0 0 15 18" xmlns:xlink="http://www.w3.org/1999/xlink">
  <defs>
    <path id="a" d="M15.5 23.8c.97 0 1.76-.8 1.76-1.75h-3.52c0 .96.8 1.76 1.76 1.76zm5.72-5.28v-4.84c0-2.73-1.84-4.93-4.4-5.55V7.5c0-.7-.62-1.3-1.32-1.3-.7 0-1.32.6-1.32 1.3v.63c-2.56.62-4.4 2.82-4.4 5.55v4.84L8 20.28v.9h15v-.9l-1.78-1.76zm-1.76.88h-7.92v-5.72c0-2.2 1.76-3.96 3.96-3.96s3.96 1.76 3.96 3.96v5.72z"/>
  </defs>
  <use fill="#F83838" fill-rule="evenodd" xlink:href="#a" transform="translate(-8 -6)"/>
</svg>