<svg xmlns="http://www.w3.org/2000/svg" viewBox="0 0 22 16" xmlns:xlink="http://www.w3.org/1999/xlink">
  <defs>
    <path id="a" d="M14.98 8.1l9.72 3-9.72 3.2-9.74-3.2 9.74-3zm10.52 2.8c.03.03.05.06.05.1v1.85c0 .06-.04.1-.1.12L15.03 16.4h-.1L4.5 12.96c-.06 0-.1-.06-.1-.12V11c0-.04.03-.07.06-.1.03-.07.08-.12.16-.15L14.9 7.6c.06-.03.1-.03.16 0l10.28 3.15c.07.03.13.08.16.15zm-.12 2.9c.04 0 .08 0 .1.03.05.02.07.06.07.1v.63c0 .06-.04.1-.1.12L15.03 18.1h-.1L4.5 14.68c-.06 0-.1-.06-.1-.12v-.63c0-.04.03-.08.06-.1.03-.03.08-.03.12-.02L15 17.27l10.4-3.4zm0 2.08c.04-.02.08 0 .1 0 .05.04.07.08.07.12v3.1c0 .06-.04.1-.1.13l-10.43 3.42h-.08L4.48 19.23c-.06-.02-.1-.07-.1-.12V16c0-.04.03-.08.06-.1.03-.03.08-.04.12-.02l10.42 3.4 10.4-3.4z"/>
  </defs>
  <use fill="#FFF" fill-rule="evenodd" xlink:href="#a" transform="translate(-4 -7)"/>
</svg>