<svg xmlns="http://www.w3.org/2000/svg" viewBox="0 0 30 26"><path fill="#FEFEFE" fill-rule="evenodd" d="M21.14 12.08c1.45.6 3.28 1.15 4.9 2.06 4.26 2.42 4.26 6.12-.04 8.55-4.5 2.5-9.53 3.1-14.6 2.3-2.84-.43-5.76-1.3-8.24-2.63-3.8-2.03-3.74-5.4-.13-7.66 1.76-1.1 3.8-1.8 5.67-2.67l6.28 8.63c1.14-1.84.48-3.6-.68-5.25-.96-1.4-2.14-2.65-3.04-4.1-1.36-2.15-1.14-4.1.14-5.3l6.76 10.03c1.25-1.65.7-3.37-.38-5-1.06-1.56-2.35-2.98-3.3-4.6-1.33-2.2-1.08-4.2.68-5.95.13 3.22 2.53 5.12 4.07 7.48.76 1.18 1.2 2.55 1.9 4.12"/></svg>