<svg xmlns="http://www.w3.org/2000/svg" viewBox="0 0 30 34.79"><path fill="#F83838" d="M23.1 12.65c.26.3.22.84.17 1V32.8H14.9v-5h-4.04v4.97H2.1L2 13.87c0-1.35.9-1.52 1.26-1.52H22.1c.52 0 .85.1 1.02.3M27.5 0H13.6c-1 0-2.47.7-2.47 2.7v7.63H3.28c-1.3 0-3.28.94-3.28 3.53l.05 19.92v1h25.22V13.95c.07-.4.17-1.6-.62-2.55-.38-.52-1.14-1.07-2.52-1.07h-9V2.67c0-.22 0-.64.5-.67h13.85c.44 0 .5.54.5.76v31.5H30V2.76C30 1.66 29.33 0 27.48 0"/><path fill="#F83838" d="M17.27 30.23v-3h2.9v3h-2.9zm0-6.17v-3.02h2.9v3.02h-2.9zm0-5.6v-3h2.9v3h-2.9zM5.5 30.23v-3h2.9v3H5.5h.02zm0-6.17v-3.02h2.9v3.02H5.5h.02zm0-5.6v-3h2.9v3H5.5h.02zm5.95 0v-3h2.95v3h-2.97.02zM22.05 8.2v-3H25v3h-2.97.02zm-5.77 0v-3h2.86v3h-2.86zM11.5 24.07v-3.02h2.9v3.02h-2.96.06z"/></svg>