<svg xmlns="http://www.w3.org/2000/svg" viewBox="0 0 19.61 19.9">
  <path fill="#FFF" d="M17.14 11c0-.3.1-.6.1-1s0-.7-.1-1l2.1-1.7c.2-.2.2-.4.1-.6l-2-3.5c-.1-.1-.3-.2-.6-.1l-2.5 1c-.5-.4-1.1-.7-1.7-1l-.4-2.6c.1-.3-.2-.5-.4-.5h-4c-.2 0-.5.2-.5.4l-.4 2.7c-.6.2-1.1.6-1.7 1l-2.4-1c-.3-.1-.5 0-.7.2l-2 3.5c-.1.1 0 .4.2.6L2.34 9c0 .3-.1.6-.1 1s0 .7.1 1l-2.1 1.7c-.2.2-.2.4-.1.6l2 3.5c.1.1.3.2.6.1l2.5-1c.5.4 1.1.7 1.7 1l.4 2.6c0 .2.2.4.5.4h4c.2 0 .5-.2.5-.4l.4-2.6c.6-.3 1.2-.6 1.7-1l2.5 1c.2.1.5 0 .6-.2l2-3.5c.1-.2.1-.5-.1-.6l-2.3-1.6zm-7.4 3.63C7.22 14.63 5.1 12.5 5.1 10s2.12-4.63 4.64-4.63S14.37 7.5 14.37 10s-2.12 4.63-4.63 4.63z"/>
  <path fill="#FFF" d="M17.14 11c0-.3.1-.6.1-1s0-.7-.1-1l2.1-1.7c.2-.2.2-.4.1-.6l-2-3.5c-.1-.1-.3-.2-.6-.1l-2.5 1c-.5-.4-1.1-.7-1.7-1l-.4-2.6c.1-.3-.2-.5-.4-.5h-4c-.2 0-.5.2-.5.4l-.4 2.7c-.6.2-1.1.6-1.7 1l-2.4-1c-.3-.1-.5 0-.7.2l-2 3.5c-.1.1 0 .4.2.6L2.34 9c0 .3-.1.6-.1 1s0 .7.1 1l-2.1 1.7c-.2.2-.2.4-.1.6l2 3.5c.1.1.3.2.6.1l2.5-1c.5.4 1.1.7 1.7 1l.4 2.6c0 .2.2.4.5.4h4c.2 0 .5-.2.5-.4l.4-2.6c.6-.3 1.2-.6 1.7-1l2.5 1c.2.1.5 0 .6-.2l2-3.5c.1-.2.1-.5-.1-.6l-2.3-1.6zm-7.4 3.63C7.22 14.63 5.1 12.5 5.1 10s2.12-4.63 4.64-4.63 4.63 2.1 4.63 4.63-2.12 4.63-4.63 4.63z"/>
</svg>
