<svg xmlns="http://www.w3.org/2000/svg" viewBox="0.08 0.88 15.19 21.15"><path fill="#FFF" d="M14.05 20.28c0 .3-.24.54-.53.54H1.82c-.3 0-.53-.24-.53-.54V6.1c0-.28.2-.52.5-.52h2.4v.48c0 .63.5 1.14 1.1 1.14h4.6c.63 0 1.14-.5 1.14-1.14v-.48h2.44c.3 0 .52.24.52.53v14.2zM7.07 2.13c.15-.17.34-.24.6-.24.38 0 .64.1.8.3.25.23.3.7.3 1.1H6.73c.02-.4.1-.9.34-1.2zm6.45 2.24h-2.45c-.04-.6-.54-1.07-1.14-1.07h-.16c0-.5-.07-1.2-.5-1.74-.26-.3-.74-.68-1.6-.68-.55 0-1.02.2-1.35.58-.47.53-.6 1.3-.6 1.84h-.37c-.6 0-1.1.47-1.14 1.07H1.88C.87 4.37.1 5.15.1 6.1v14.2c0 .96.77 1.75 1.73 1.75h11.7c.96 0 1.74-.8 1.74-1.75V6.1c0-.95-.78-1.73-1.74-1.73z"/><path fill="#FFF" d="M12.03 9.9c.28 0 .5.22.5.5s-.22.5-.5.5H3.3c-.27 0-.5-.22-.5-.5s.23-.5.5-.5h8.73zm0 3.03c.28 0 .5.22.5.5s-.22.5-.5.5H3.3c-.27 0-.5-.22-.5-.5s.23-.5.5-.5h8.73zm0 2.86c.28 0 .5.2.5.5 0 .22-.22.5-.5.5H3.3c-.27 0-.5-.28-.5-.5 0-.3.23-.5.5-.5h8.73z"/></svg>